<?xml version="1.0" standalone="no"?>
<!DOCTYPE svg PUBLIC "-//W3C//DTD SVG 20010904//EN"
 "http://www.w3.org/TR/2001/REC-SVG-20010904/DTD/svg10.dtd">
<svg version="1.0" xmlns="http://www.w3.org/2000/svg"
 width="433.000000pt" height="433.000000pt" viewBox="0 0 433.000000 433.000000"
 preserveAspectRatio="xMidYMid meet">
<metadata>
Created by potrace 1.14, written by Peter Selinger 2001-2017
</metadata>
<g transform="translate(0.000000,433.000000) scale(0.100000,-0.100000)"
fill="#000000" stroke="none">
<path d="M941 4199 c-111 -12 -230 -43 -318 -84 -232 -107 -410 -321 -472
-567 -44 -172 -46 -234 -46 -1418 1 -1225 2 -1250 59 -1416 87 -257 276 -454
522 -543 182 -66 152 -65 1389 -69 1175 -3 1310 0 1466 39 213 53 396 181 513
358 96 144 139 287 156 514 12 177 13 1949 0 2212 -13 266 -45 403 -129 544
-132 222 -325 356 -601 418 -67 15 -196 17 -1265 19 -655 1 -1228 -2 -1274 -7z
m1465 -834 c347 -56 613 -251 732 -536 27 -66 62 -203 62 -244 0 -13 -27 -15
-208 -15 l-208 0 -12 46 c-24 91 -84 197 -147 259 -101 101 -219 151 -380 162
-439 29 -735 -296 -762 -837 -16 -327 86 -629 268 -794 150 -135 366 -193 569
-152 259 53 421 247 475 569 l6 37 203 0 202 0 -8 -72 c-60 -510 -430 -859
-939 -885 -653 -34 -1136 423 -1188 1124 -51 677 329 1232 914 1337 106 19
308 19 421 1z"/>
</g>
</svg>
